<svg xmlns="http://www.w3.org/2000/svg" width="210mm" height="210mm" viewBox="0 0 744.1 1052.4"><g stroke="#c8c8c8" stroke-linecap="square" stroke-opacity=".4"><path d="M782.2 581l-6.5-6.6-.3-.3.6-.7.3.4 6.6 6.5 6.5-6.5.3-.4.7.7-.4.3-6.5 6.5 6.5 6.6.4.3-.7.6-.3-.3-6.5-6.5-6.6 6.5-.3.3-.6-.6.3-.3 6.5-6.6z"/><path d="M331.9 527.5L-83.6 112l-20.6-20.6 41.1-41 20.6 20.5L373 486.4 788.5 70.9 809 50.3l41.1 41.1-20.5 20.6L414 527.5l415.5 415.4 20.5 20.6-41 41.1-20.6-20.5L373 568.6-42.5 984l-20.6 20.5-41-41.1 20.5-20.6 415.5-415.4z" stroke-width="63.6"/></g></svg>