<svg width="384" height="134" viewBox="0 0 384 134" xmlns="http://www.w3.org/2000/svg"><title>notification</title><defs><filter x="-50%" y="-50%" width="200%" height="200%" filterUnits="objectBoundingBox" id="a"><feOffset dy="2" in="SourceAlpha" result="shadowOffsetOuter1"/><feGaussianBlur stdDeviation="3.5" in="shadowOffsetOuter1" result="shadowBlurOuter1"/><feColorMatrix values="0 0 0 0 0 0 0 0 0 0 0 0 0 0 0 0 0 0 0.35 0" in="shadowBlurOuter1" result="shadowMatrixOuter1"/><feMerge><feMergeNode in="shadowMatrixOuter1"/><feMergeNode in="SourceGraphic"/></feMerge></filter></defs><g transform="translate(7 5)" fill="none" fill-rule="evenodd"><rect stroke="#C8C8C8" fill="#FFF" filter="url(#a)" width="370" height="120" rx="3"/><path fill="#9B9B9B" d="M15 15h90v90H15z"/><path d="M351.9 17.5l-6.6-6.5-.3-.4.6-.6.4.3 6.5 6.6 6.5-6.6.4-.3.6.6-.3.4-6.6 6.5 6.6 6.5.3.4-.6.6-.4-.3-6.5-6.6-6.5 6.6-.4.3-.6-.6.3-.4 6.6-6.5z" stroke-opacity=".4" stroke="#C8C8C8" stroke-linecap="square"/><g fill="#D8D8D8"><path d="M115 15h207v15H115zM115 45h197v10H115zM115 65h102v10H115zM225 65h44v10h-44zM279 85h44v10h-44zM115 85h154v10H115z"/></g></g></svg>